# xmcd
#
# Track frame offsets: 
#        150
#        15502
#        29478
#        50643
#        69050
#        93054
#        110468
#        127990
#        147041
#        164340
#        179278
#
# Disc length: 2579 seconds
#
# Revision: 0
# Processed by: cddbd v1.5.1PL2 Copyright (c) Steve Scherf et al.
# Submitted via: ExactAudioCopy v0.95b3
#
DISCID=840a110b
DTITLE=Trace Adkins  - Comin' On Strong
DYEAR=2003
DGENRE=Country
TTITLE0=Hot Mama 
TTITLE1=Comin' On Strong 
TTITLE2=Then Came The Night 
TTITLE3=I'd Sure Hate To Break Down Here
TTITLE4=Missing You 
TTITLE5=One of Those Nights 
TTITLE6=Untamed 
TTITLE7=Then I Wake Up 
TTITLE8=One Night Stand 
TTITLE9=Baby's Gone 
TTITLE10=Rough and Ready 
EXTD=
EXTT0=
EXTT1=
EXTT2=
EXTT3=
EXTT4=
EXTT5=
EXTT6=
EXTT7=
EXTT8=
EXTT9=
EXTT10=
PLAYORDER=
